<svg width="614" height="357" viewBox="0 0 614 357" fill="none" xmlns="http://www.w3.org/2000/svg">
<g filter="url(#filter0_bdi_7_81)">
<path fill-rule="evenodd" clip-rule="evenodd" d="M324.484 208.33C306.326 211.891 288.204 211.482 270.325 208.244C235.765 201.985 202.186 184.978 175.096 164.806C161.743 154.863 150.847 144.798 142.94 136.097C139.002 131.763 136.077 128.066 134.059 125.192C132.41 122.845 131.715 121.542 131.579 121.286C131.562 121.255 131.554 121.239 131.553 121.24C131.553 121.24 131.554 121.241 131.555 121.244C131.556 121.246 131.556 121.247 131.557 121.25C117.709 89.7803 80.9847 75.4632 49.4852 89.2712C17.958 103.091 3.60361 139.853 17.4237 171.38C31.421 203.311 64.3818 237.787 100.647 264.79C138.911 293.282 190.016 320.385 248.11 330.906C289.069 338.325 333.423 337.403 377.876 323.078L324.484 208.33ZM485.231 258.31C527.775 218.421 565.294 162.689 596.82 89.51C610.44 57.8958 595.852 21.2264 564.238 7.60664C532.624 -6.01308 495.954 8.57438 482.335 40.1886C464.821 80.841 446.452 112.01 428.232 135.81L485.231 258.31Z" fill="url(#paint0_radial_7_81)" fill-opacity="0.91" shape-rendering="crispEdges"/>
</g>
<defs>
<filter id="filter0_bdi_7_81" x="-10.8495" y="-20.5091" width="635.785" height="379.004" filterUnits="userSpaceOnUse" color-interpolation-filters="sRGB">
<feFlood flood-opacity="0" result="BackgroundImageFix"/>
<feGaussianBlur in="BackgroundImageFix" stdDeviation="11.5069"/>
<feComposite in2="SourceAlpha" operator="in" result="effect1_backgroundBlur_7_81"/>
<feColorMatrix in="SourceAlpha" type="matrix" values="0 0 0 0 0 0 0 0 0 0 0 0 0 0 0 0 0 0 127 0" result="hardAlpha"/>
<feOffset dy="9.58904"/>
<feGaussianBlur stdDeviation="5.75343"/>
<feComposite in2="hardAlpha" operator="out"/>
<feColorMatrix type="matrix" values="0 0 0 0 0 0 0 0 0 0 0 0 0 0 0 0 0 0 0.1 0"/>
<feBlend mode="normal" in2="effect1_backgroundBlur_7_81" result="effect2_dropShadow_7_81"/>
<feBlend mode="normal" in="SourceGraphic" in2="effect2_dropShadow_7_81" result="shape"/>
<feColorMatrix in="SourceAlpha" type="matrix" values="0 0 0 0 0 0 0 0 0 0 0 0 0 0 0 0 0 0 127 0" result="hardAlpha"/>
<feOffset dy="-3.83562"/>
<feGaussianBlur stdDeviation="5.75343"/>
<feComposite in2="hardAlpha" operator="arithmetic" k2="-1" k3="1"/>
<feColorMatrix type="matrix" values="0 0 0 0 0 0 0 0 0 0 0 0 0 0 0 0 0 0 0.1 0"/>
<feBlend mode="normal" in2="shape" result="effect3_innerShadow_7_81"/>
</filter>
<radialGradient id="paint0_radial_7_81" cx="0" cy="0" r="1" gradientUnits="userSpaceOnUse" gradientTransform="translate(307.507 195.26) rotate(80.4258) scale(161.427 285.914)">
<stop offset="0.231952" stop-color="#4255FF"/>
<stop offset="1" stop-color="#CCD1FF"/>
</radialGradient>
</defs>
</svg>
