<svg width="706" height="729" viewBox="0 0 706 729" fill="none" xmlns="http://www.w3.org/2000/svg">
<g filter="url(#filter0_f_7_79)">
<path fill-rule="evenodd" clip-rule="evenodd" d="M354.336 115.767C378.506 115.844 400.453 129.887 410.65 151.802L584.212 524.815C598.734 556.025 585.205 593.099 553.995 607.62C522.785 622.142 485.712 608.614 471.19 577.404L360.574 339.67C357.832 333.778 349.463 333.751 346.684 339.626L234.044 577.76C219.326 608.878 182.168 622.172 151.05 607.453C119.932 592.734 106.638 555.576 121.357 524.459L297.796 151.445C308.131 129.595 330.166 115.691 354.336 115.767Z" fill="url(#paint0_radial_7_79)"/>
</g>
<defs>
<filter id="filter0_f_7_79" x="0.288918" y="0.698586" width="704.824" height="727.823" filterUnits="userSpaceOnUse" color-interpolation-filters="sRGB">
<feFlood flood-opacity="0" result="BackgroundImageFix"/>
<feBlend mode="normal" in="SourceGraphic" in2="BackgroundImageFix" result="shape"/>
<feGaussianBlur stdDeviation="57.5343" result="effect1_foregroundBlur_7_79"/>
</filter>
<radialGradient id="paint0_radial_7_79" cx="0" cy="0" r="1" gradientUnits="userSpaceOnUse" gradientTransform="translate(374.26 524.26) rotate(-90) scale(373.973 356.691)">
<stop offset="0.133333" stop-color="#58C3FF"/>
<stop offset="1" stop-color="#58C3FF" stop-opacity="0"/>
</radialGradient>
</defs>
</svg>
